# xmcd CD database file
#
# Track frame offsets:
#	150
#	10480
#	22087
#	33715
#	44312
#	58365
#	70740
#	83095
#	94750
#	105342
#
# Disc length: 1557 seconds
#
# Revision: 1
# Processed by: cddbd v1.4PL0 Copyright (c) Steve Scherf et al.
# Submitted via: CDex 1.40Release
#
DISCID=8106130a
DTITLE=Various Artist - Sought After Soul CD 3
DYEAR=1900
DGENRE=Soul
TTITLE0=The Four Voices- Your Love Is Getting Stronger
TTITLE1=The Nomads - Something's Bad
TTITLE2=The Soul Set- Will You Ever Learn
TTITLE3=Billy Kennedy - Sweet Things
TTITLE4=Doni Burdick - Bari Track
TTITLE5=The Fi-Dels - Try A Little  Harder
TTITLE6=Eddie Holman - Where I'm Not Wanted
TTITLE7=Edwin Starr - My Kind Of Woman
TTITLE8=Bobby Mac - Shy Guy
TTITLE9=Kell Osborne - Quicksand
EXTD=ID3G: 42
EXTT0=
EXTT1=
EXTT2=
EXTT3=
EXTT4=
EXTT5=
EXTT6=
EXTT7=
EXTT8=
EXTT9=
PLAYORDER=
